<?xml version="1.0" encoding="UTF-8" standalone="no"?>
<!-- Created with Inkscape (http://www.inkscape.org/) -->

<svg
   xmlns:osb="http://www.openswatchbook.org/uri/2009/osb"
   xmlns:dc="http://purl.org/dc/elements/1.1/"
   xmlns:cc="http://creativecommons.org/ns#"
   xmlns:rdf="http://www.w3.org/1999/02/22-rdf-syntax-ns#"
   xmlns:svg="http://www.w3.org/2000/svg"
   xmlns="http://www.w3.org/2000/svg"
   xmlns:sodipodi="http://sodipodi.sourceforge.net/DTD/sodipodi-0.dtd"
   xmlns:inkscape="http://www.inkscape.org/namespaces/inkscape"
   width="41.094631mm"
   height="82.823196mm"
   viewBox="0 0 145.61091 293.46801"
   id="svg2"
   version="1.1"
   inkscape:version="0.91 r13725"
   sodipodi:docname="pedaco.svg">
  <defs
     id="defs4">
    <linearGradient
       id="linearGradient4548"
       osb:paint="solid">
      <stop
         style="stop-color:#000000;stop-opacity:1;"
         offset="0"
         id="stop4550" />
    </linearGradient>
  </defs>
  <sodipodi:namedview
     id="base"
     pagecolor="#ffffff"
     bordercolor="#666666"
     borderopacity="1.0"
     inkscape:pageopacity="0.0"
     inkscape:pageshadow="2"
     inkscape:zoom="1.4"
     inkscape:cx="198.98676"
     inkscape:cy="107.10396"
     inkscape:document-units="px"
     inkscape:current-layer="layer1"
     showgrid="false"
     fit-margin-top="0"
     fit-margin-left="0"
     fit-margin-right="0"
     fit-margin-bottom="0"
     inkscape:window-width="1301"
     inkscape:window-height="744"
     inkscape:window-x="65"
     inkscape:window-y="24"
     inkscape:window-maximized="1" />
  <metadata
     id="metadata7">
    <rdf:RDF>
      <cc:Work
         rdf:about="">
        <dc:format>image/svg+xml</dc:format>
        <dc:type
           rdf:resource="http://purl.org/dc/dcmitype/StillImage" />
        <dc:title></dc:title>
      </cc:Work>
    </rdf:RDF>
  </metadata>
  <g
     inkscape:label="Layer 1"
     inkscape:groupmode="layer"
     id="layer1"
     transform="translate(173.1626,-183.19962)">
    <g
       transform="matrix(1.2500001,0,0,-1.2500001,-197.76508,491.76524)"
       inkscape:label="ink_ext_XXXXXX"
       id="g4174">
      <g
         transform="scale(0.1,0.1)"
         id="g4176">
        <path
           inkscape:connector-curvature="0"
           id="path4178"
           style="fill:none;stroke:#000000;stroke-width:2.5;stroke-linecap:butt;stroke-linejoin:miter;stroke-miterlimit:3.79999995;stroke-dasharray:none;stroke-opacity:1"
           d="m 385,224 31.5,0 m 3057,0 -31.5,0" />
        <g
           transform="scale(10,10)"
           id="g4180">
          <text
             id="text4182"
             style="font-variant:normal;font-weight:normal;font-size:7px;font-family:Helvetica;-inkscape-font-specification:Helvetica;writing-mode:lr-tb;fill:#000000;fill-opacity:1;fill-rule:nonzero;stroke:none"
             transform="matrix(1,0,0,-1,24.571,20.0648)">
            <tspan
               id="tspan4184"
               sodipodi:role="line"
               y="0"
               x="0 3.892 5.8379998">0.4</tspan>
          </text>
        </g>
        <path
           inkscape:connector-curvature="0"
           id="path4186"
           style="fill:none;stroke:#000000;stroke-width:2.5;stroke-linecap:butt;stroke-linejoin:miter;stroke-miterlimit:3.79999995;stroke-dasharray:none;stroke-opacity:1"
           d="m 385,592.5 31.5,0 m 3057,0 -31.5,0" />
        <g
           transform="scale(10,10)"
           id="g4188">
          <text
             id="text4190"
             style="font-variant:normal;font-weight:normal;font-size:7px;font-family:Helvetica;-inkscape-font-specification:Helvetica;writing-mode:lr-tb;fill:#000000;fill-opacity:1;fill-rule:nonzero;stroke:none"
             transform="matrix(1,0,0,-1,20.6792,56.9148)">
            <tspan
               id="tspan4192"
               sodipodi:role="line"
               y="0"
               x="0 3.892 5.8379998 9.7299995">0.45</tspan>
          </text>
        </g>
        <path
           inkscape:connector-curvature="0"
           id="path4194"
           style="fill:none;stroke:#000000;stroke-width:2.5;stroke-linecap:butt;stroke-linejoin:miter;stroke-miterlimit:3.79999995;stroke-dasharray:none;stroke-opacity:1"
           d="m 385,961 31.5,0 m 3057,0 -31.5,0" />
        <g
           transform="scale(10,10)"
           id="g4196">
          <text
             id="text4198"
             style="font-variant:normal;font-weight:normal;font-size:7px;font-family:Helvetica;-inkscape-font-specification:Helvetica;writing-mode:lr-tb;fill:#000000;fill-opacity:1;fill-rule:nonzero;stroke:none"
             transform="matrix(1,0,0,-1,24.571,93.7648)">
            <tspan
               id="tspan4200"
               sodipodi:role="line"
               y="0"
               x="0 3.892 5.8379998">0.5</tspan>
          </text>
        </g>
        <path
           inkscape:connector-curvature="0"
           id="path4202"
           style="fill:none;stroke:#000000;stroke-width:2.5;stroke-linecap:butt;stroke-linejoin:miter;stroke-miterlimit:3.79999995;stroke-dasharray:none;stroke-opacity:1"
           d="m 385,1330 31.5,0 m 3057,0 -31.5,0" />
        <g
           transform="scale(10,10)"
           id="g4204">
          <text
             id="text4206"
             style="font-variant:normal;font-weight:normal;font-size:7px;font-family:Helvetica;-inkscape-font-specification:Helvetica;writing-mode:lr-tb;fill:#000000;fill-opacity:1;fill-rule:nonzero;stroke:none"
             transform="matrix(1,0,0,-1,20.6792,130.665)">
            <tspan
               id="tspan4208"
               sodipodi:role="line"
               y="0"
               x="0 3.892 5.8379998 9.7299995">0.55</tspan>
          </text>
        </g>
        <path
           inkscape:connector-curvature="0"
           id="path4210"
           style="fill:none;stroke:#000000;stroke-width:2.5;stroke-linecap:butt;stroke-linejoin:miter;stroke-miterlimit:3.79999995;stroke-dasharray:none;stroke-opacity:1"
           d="m 385,1698.5 31.5,0 m 3057,0 -31.5,0" />
        <g
           transform="scale(10,10)"
           id="g4212">
          <text
             id="text4214"
             style="font-variant:normal;font-weight:normal;font-size:7px;font-family:Helvetica;-inkscape-font-specification:Helvetica;writing-mode:lr-tb;fill:#000000;fill-opacity:1;fill-rule:nonzero;stroke:none"
             transform="matrix(1,0,0,-1,24.571,167.515)">
            <tspan
               id="tspan4216"
               sodipodi:role="line"
               y="0"
               x="0 3.892 5.8379998">0.6</tspan>
          </text>
        </g>
        <path
           inkscape:connector-curvature="0"
           id="path4218"
           style="fill:none;stroke:#000000;stroke-width:2.5;stroke-linecap:butt;stroke-linejoin:miter;stroke-miterlimit:3.79999995;stroke-dasharray:none;stroke-opacity:1"
           d="m 385,2067 31.5,0 m 3057,0 -31.5,0" />
        <g
           transform="scale(10,10)"
           id="g4220">
          <text
             id="text4222"
             style="font-variant:normal;font-weight:normal;font-size:7px;font-family:Helvetica;-inkscape-font-specification:Helvetica;writing-mode:lr-tb;fill:#000000;fill-opacity:1;fill-rule:nonzero;stroke:none"
             transform="matrix(1,0,0,-1,20.6792,204.365)">
            <tspan
               id="tspan4224"
               sodipodi:role="line"
               y="0"
               x="0 3.892 5.8379998 9.7299995">0.65</tspan>
          </text>
        </g>
        <path
           inkscape:connector-curvature="0"
           id="path4226"
           style="fill:none;stroke:#000000;stroke-width:2.5;stroke-linecap:butt;stroke-linejoin:miter;stroke-miterlimit:3.79999995;stroke-dasharray:none;stroke-opacity:1"
           d="m 385,2435.5 31.5,0 m 3057,0 -31.5,0" />
        <g
           transform="scale(10,10)"
           id="g4228">
          <text
             id="text4230"
             style="font-variant:normal;font-weight:normal;font-size:7px;font-family:Helvetica;-inkscape-font-specification:Helvetica;writing-mode:lr-tb;fill:#000000;fill-opacity:1;fill-rule:nonzero;stroke:none"
             transform="matrix(1,0,0,-1,24.571,241.215)">
            <tspan
               id="tspan4232"
               sodipodi:role="line"
               y="0"
               x="0 3.892 5.8379998">0.7</tspan>
          </text>
        </g>
        <path
           inkscape:connector-curvature="0"
           id="path4234"
           style="fill:none;stroke:#000000;stroke-width:2.5;stroke-linecap:butt;stroke-linejoin:miter;stroke-miterlimit:3.79999995;stroke-dasharray:none;stroke-opacity:1"
           d="m 385,224 0,31.5 m 0,2180 0,-31.5" />
        <g
           transform="scale(10,10)"
           id="g4236">
          <text
             id="text4238"
             style="font-variant:normal;font-weight:normal;font-size:7px;font-family:Helvetica;-inkscape-font-specification:Helvetica;writing-mode:lr-tb;fill:#000000;fill-opacity:1;fill-rule:nonzero;stroke:none"
             transform="matrix(1,0,0,-1,37.5273,13.0648)">
            <tspan
               id="tspan4240"
               y="0"
               x="0">1</tspan>
          </text>
        </g>
        <path
           inkscape:connector-curvature="0"
           id="path4242"
           style="fill:none;stroke:#000000;stroke-width:2.5;stroke-linecap:butt;stroke-linejoin:miter;stroke-miterlimit:3.79999995;stroke-dasharray:none;stroke-opacity:1"
           d="m 1002.5,224 0,31.5 m 0,2180 0,-31.5" />
        <g
           transform="scale(10,10)"
           id="g4244">
          <text
             id="text4246"
             style="font-variant:normal;font-weight:normal;font-size:7px;font-family:Helvetica;-inkscape-font-specification:Helvetica;writing-mode:lr-tb;fill:#000000;fill-opacity:1;fill-rule:nonzero;stroke:none"
             transform="matrix(1,0,0,-1,94.4128,13.0648)">
            <tspan
               id="tspan4248"
               sodipodi:role="line"
               y="0"
               x="0 3.892 5.8379998 9.7299995">1.02</tspan>
          </text>
        </g>
        <path
           inkscape:connector-curvature="0"
           id="path4250"
           style="fill:none;stroke:#000000;stroke-width:2.5;stroke-linecap:butt;stroke-linejoin:miter;stroke-miterlimit:3.79999995;stroke-dasharray:none;stroke-opacity:1"
           d="m 1620.5,224 0,31.5 m 0,2180 0,-31.5" />
        <g
           transform="scale(10,10)"
           id="g4252">
          <text
             id="text4254"
             style="font-variant:normal;font-weight:normal;font-size:7px;font-family:Helvetica;-inkscape-font-specification:Helvetica;writing-mode:lr-tb;fill:#000000;fill-opacity:1;fill-rule:nonzero;stroke:none"
             transform="matrix(1,0,0,-1,156.213,13.0648)">
            <tspan
               id="tspan4256"
               sodipodi:role="line"
               y="0"
               x="0 3.892 5.8379998 9.7299995">1.04</tspan>
          </text>
        </g>
        <path
           inkscape:connector-curvature="0"
           id="path4258"
           style="fill:none;stroke:#000000;stroke-width:2.5;stroke-linecap:butt;stroke-linejoin:miter;stroke-miterlimit:3.79999995;stroke-dasharray:none;stroke-opacity:1"
           d="m 2238,224 0,31.5 m 0,2180 0,-31.5" />
        <g
           transform="scale(10,10)"
           id="g4260">
          <text
             id="text4262"
             style="font-variant:normal;font-weight:normal;font-size:7px;font-family:Helvetica;-inkscape-font-specification:Helvetica;writing-mode:lr-tb;fill:#000000;fill-opacity:1;fill-rule:nonzero;stroke:none"
             transform="matrix(1,0,0,-1,217.963,13.0648)">
            <tspan
               id="tspan4264"
               sodipodi:role="line"
               y="0"
               x="0 3.892 5.8379998 9.7299995">1.06</tspan>
          </text>
        </g>
        <path
           inkscape:connector-curvature="0"
           id="path4266"
           style="fill:none;stroke:#000000;stroke-width:2.5;stroke-linecap:butt;stroke-linejoin:miter;stroke-miterlimit:3.79999995;stroke-dasharray:none;stroke-opacity:1"
           d="m 2856,224 0,31.5 m 0,2180 0,-31.5" />
        <g
           transform="scale(10,10)"
           id="g4268">
          <text
             id="text4270"
             style="font-variant:normal;font-weight:normal;font-size:7px;font-family:Helvetica;-inkscape-font-specification:Helvetica;writing-mode:lr-tb;fill:#000000;fill-opacity:1;fill-rule:nonzero;stroke:none"
             transform="matrix(1,0,0,-1,279.763,13.0648)">
            <tspan
               id="tspan4272"
               sodipodi:role="line"
               y="0"
               x="0 3.892 5.8379998 9.7299995">1.08</tspan>
          </text>
        </g>
        <path
           inkscape:connector-curvature="0"
           id="path4274"
           style="fill:none;stroke:#000000;stroke-width:2.5;stroke-linecap:butt;stroke-linejoin:miter;stroke-miterlimit:3.79999995;stroke-dasharray:none;stroke-opacity:1"
           d="m 3473.5,224 0,31.5 m 0,2180 0,-31.5" />
        <g
           transform="scale(10,10)"
           id="g4276">
          <text
             id="text4278"
             style="font-variant:normal;font-weight:normal;font-size:7px;font-family:Helvetica;-inkscape-font-specification:Helvetica;writing-mode:lr-tb;fill:#000000;fill-opacity:1;fill-rule:nonzero;stroke:none"
             transform="matrix(1,0,0,-1,343.459,13.0648)">
            <tspan
               id="tspan4280"
               sodipodi:role="line"
               y="0"
               x="0 3.892 5.8379998">1.1</tspan>
          </text>
        </g>
        <path
           inkscape:connector-curvature="0"
           id="path4282"
           style="fill:none;stroke:#000000;stroke-width:5;stroke-linecap:butt;stroke-linejoin:miter;stroke-miterlimit:3.79999995;stroke-dasharray:none;stroke-opacity:1"
           d="m 385,224 3088.5,0 0,2211.5 -3088.5,0 0,-2211.5 z" />
        <g
           transform="scale(10,10)"
           id="g4284">
          <text
             id="text4286"
             style="font-variant:normal;font-weight:normal;font-size:7px;font-family:Symbol;-inkscape-font-specification:Symbol;writing-mode:lr-tb;fill:#000000;fill-opacity:1;fill-rule:nonzero;stroke:none"
             transform="matrix(0,1,1,0,7.93516,127.161)">
            <tspan
               id="tspan4288"
               y="0"
               x="0">ρ</tspan>
          </text>
          <text
             id="text4290"
             style="font-variant:normal;font-weight:normal;font-size:7px;font-family:Helvetica;-inkscape-font-specification:Helvetica;writing-mode:lr-tb;fill:#000000;fill-opacity:1;fill-rule:nonzero;stroke:none"
             transform="matrix(0,1,1,0,7.93516,131.00397)">
            <tspan
               id="tspan4292"
               y="0"
               x="0">(</tspan>
          </text>
          <text
             id="text4294"
             style="font-variant:normal;font-weight:normal;font-size:7px;font-family:Symbol;-inkscape-font-specification:Symbol;writing-mode:lr-tb;fill:#000000;fill-opacity:1;fill-rule:nonzero;stroke:none"
             transform="matrix(0,1,1,0,7.93516,133.33483)">
            <tspan
               id="tspan4296"
               y="0"
               x="0">τ</tspan>
          </text>
          <text
             id="text4298"
             style="font-variant:normal;font-weight:normal;font-size:7px;font-family:Helvetica;-inkscape-font-specification:Helvetica;writing-mode:lr-tb;fill:#000000;fill-opacity:1;fill-rule:nonzero;stroke:none"
             transform="matrix(0,1,1,0,7.93516,136.40788)">
            <tspan
               id="tspan4300"
               y="0"
               x="0">)</tspan>
          </text>
          <text
             id="text4302"
             style="font-variant:normal;font-weight:normal;font-size:7px;font-family:Symbol;-inkscape-font-specification:Symbol;writing-mode:lr-tb;fill:#000000;fill-opacity:1;fill-rule:nonzero;stroke:none"
             transform="matrix(1,0,0,-1,191.364,2.56484)">
            <tspan
               id="tspan4304"
               y="0"
               x="0">τ</tspan>
          </text>
          <text
             id="text4306"
             style="font-variant:normal;font-weight:normal;font-size:7px;font-family:Helvetica;-inkscape-font-specification:Helvetica;writing-mode:lr-tb;fill:#000000;fill-opacity:1;fill-rule:nonzero;stroke:none"
             transform="matrix(1,0,0,-1,301.186,117.71484)">
            <tspan
               id="tspan4308"
               sodipodi:role="line"
               y="0"
               x="0 5.0539999 9.7229996">DE1</tspan>
          </text>
        </g>
        <path
           inkscape:connector-curvature="0"
           id="path4310"
           style="fill:none;stroke:#000000;stroke-width:6.25;stroke-linecap:butt;stroke-linejoin:miter;stroke-miterlimit:3.79999995;stroke-dasharray:25, 50;stroke-dashoffset:0;stroke-opacity:1"
           d="m 3190,1200.5 199.5,0 M 385,224 l 0,589.5 0.5,0 0,74 3.5,0 0,73.5 11.5,0 0,74 116.5,0 0,73.5 166,0 0,74 40.5,0 0,73.5 130,0 0,74 21,0 0,73.5 86,0 0,73.5 326.5,0 0,74 754.5,0 0,73.5 133.5,0 0,74 275.5,0 0,73.5 370,0 0,74 653,0" />
        <g
           transform="scale(10,10)"
           id="g4312">
          <text
             id="text4314"
             style="font-variant:normal;font-weight:normal;font-size:7px;font-family:Helvetica;-inkscape-font-specification:Helvetica;writing-mode:lr-tb;fill:#000000;fill-opacity:1;fill-rule:nonzero;stroke:none"
             transform="matrix(1,0,0,-1,287.76,110.715)">
            <tspan
               id="tspan4316"
               sodipodi:role="line"
               y="0"
               x="0 5.0539999 9.7229996 13.615 17.702999 22.372">DE1+PS</tspan>
          </text>
        </g>
        <path
           inkscape:connector-curvature="0"
           id="path4318"
           style="fill:none;stroke:#9400d4;stroke-width:12.5;stroke-linecap:butt;stroke-linejoin:miter;stroke-miterlimit:3.79999995;stroke-dasharray:none;stroke-opacity:1"
           d="m 3190,1130.5 199.5,0 M 385,224 l 0,516 0.5,0 0,73.5 3.5,0 0,74 12,0 0,73.5 5,0 0,74 111,0 0,73.5 166,0 0,74 40.5,0 0,73.5 130,0 0,74 21.5,0 0,73.5 85.5,0 0,73.5 326.5,0 0,74 755,0 0,73.5 152.5,0 0,74 256,0 0,73.5 370,0 0,74 653,0" />
        <g
           transform="scale(10,10)"
           id="g4320">
          <text
             id="text4322"
             style="font-variant:normal;font-weight:normal;font-size:7px;font-family:Helvetica;-inkscape-font-specification:Helvetica;writing-mode:lr-tb;fill:#000000;fill-opacity:1;fill-rule:nonzero;stroke:none"
             transform="matrix(1,0,0,-1,285.038,103.715)">
            <tspan
               id="tspan4324"
               sodipodi:role="line"
               y="0"
               x="0 5.0539999 9.7229996 13.615 17.702999 22.372 27.041">DE1+PS*</tspan>
          </text>
        </g>
        <path
           inkscape:connector-curvature="0"
           id="path4326"
           style="fill:none;stroke:#009e73;stroke-width:12.5;stroke-linecap:butt;stroke-linejoin:miter;stroke-miterlimit:3.79999995;stroke-dasharray:none;stroke-opacity:1"
           d="m 3190,1060.5 199.5,0 M 385,224 l 0,1032 0.5,0 0,74 2.5,0 0,73.5 5,0 0,73.5 64,0 0,74 144.5,0 0,73.5 326.5,0 0,74 135.5,0 0,73.5 188.5,0 0,74 124.5,0 0,73.5 1001,0 0,73.5 356,0 0,74 87,0 0,73.5 362.5,0 0,74 290.5,0" />
        <g
           transform="scale(10,10)"
           id="g4328">
          <text
             id="text4330"
             style="font-variant:normal;font-weight:normal;font-size:7px;font-family:Helvetica;-inkscape-font-specification:Helvetica;writing-mode:lr-tb;fill:#000000;fill-opacity:1;fill-rule:nonzero;stroke:none"
             transform="matrix(1,0,0,-1,300.017,96.7148)">
            <tspan
               id="tspan4332"
               sodipodi:role="line"
               y="0"
               x="0 4.6690001 9.3380003">PSO</tspan>
          </text>
        </g>
        <path
           inkscape:connector-curvature="0"
           id="path4334"
           style="fill:none;stroke:#57b5e8;stroke-width:12.5;stroke-linecap:butt;stroke-linejoin:miter;stroke-miterlimit:3.79999995;stroke-dasharray:none;stroke-opacity:1"
           d="m 3190,990.5 199.5,0 M 385,224 l 0,1548 7,0 0,74 32.5,0 0,73.5 1,0 0,73.5 98.5,0 0,74 142.5,0 0,73.5 633,0 0,74 160,0 0,73.5 86.5,0 0,74 398,0 0,73.5 480.5,0" />
        <g
           transform="scale(10,10)"
           id="g4336">
          <text
             id="text4338"
             style="font-variant:normal;font-weight:normal;font-size:7px;font-family:Helvetica;-inkscape-font-specification:Helvetica;writing-mode:lr-tb;fill:#000000;fill-opacity:1;fill-rule:nonzero;stroke:none"
             transform="matrix(1,0,0,-1,286.591,89.7148)">
            <tspan
               id="tspan4340"
               sodipodi:role="line"
               y="0"
               x="0 4.6690001 9.3380003 14.784 18.872 23.541">PSO+PS</tspan>
          </text>
        </g>
        <path
           inkscape:connector-curvature="0"
           id="path4342"
           style="fill:none;stroke:#e69e00;stroke-width:12.5;stroke-linecap:butt;stroke-linejoin:miter;stroke-miterlimit:3.79999995;stroke-dasharray:none;stroke-opacity:1"
           d="m 3190,920.5 199.5,0 M 385,224 l 0,958.5 2,0 0,73.5 7.5,0 0,74 0.5,0 0,73.5 102,0 0,73.5 13,0 0,74 119.5,0 0,73.5 190.5,0 0,74 144.5,0 0,73.5 390,0 0,74 503,0 0,73.5 631,0 0,73.5 275,0 0,74 710,0" />
        <g
           transform="scale(10,10)"
           id="g4344">
          <text
             id="text4346"
             style="font-variant:normal;font-weight:normal;font-size:7px;font-family:Helvetica;-inkscape-font-specification:Helvetica;writing-mode:lr-tb;fill:#000000;fill-opacity:1;fill-rule:nonzero;stroke:none"
             transform="matrix(1,0,0,-1,283.869,82.7148)">
            <tspan
               id="tspan4348"
               sodipodi:role="line"
               y="0"
               x="0 4.6690001 9.3380003 14.784 18.872 23.541 28.209999">PSO+PS*</tspan>
          </text>
        </g>
        <path
           inkscape:connector-curvature="0"
           id="path4350"
           style="fill:none;stroke:#f0e342;stroke-width:12.5;stroke-linecap:butt;stroke-linejoin:miter;stroke-miterlimit:3.79999995;stroke-dasharray:none;stroke-opacity:1"
           d="m 3190,850.5 199.5,0 M 385,224 l 0,1106 1.5,0 0,73.5 6.5,0 0,147.5 103,0 0,73.5 135.5,0 0,74 14.5,0 0,73.5 174,0 0,74 103.5,0 0,73.5 188,0 0,73.5 109,0 0,74 40,0 0,73.5 455.5,0 0,74 772.5,0 0,73.5 985,0" />
        <g
           transform="scale(10,10)"
           id="g4352">
          <text
             id="text4354"
             style="font-variant:normal;font-weight:normal;font-size:7px;font-family:Helvetica;-inkscape-font-specification:Helvetica;writing-mode:lr-tb;fill:#000000;fill-opacity:1;fill-rule:nonzero;stroke:none"
             transform="matrix(1,0,0,-1,283.301,75.7148)">
            <tspan
               id="tspan4356"
               sodipodi:role="line"
               y="0"
               x="0 4.6690001 9.3380003 15.946 20.615 25.669001">PSWARM</tspan>
          </text>
        </g>
        <path
           inkscape:connector-curvature="0"
           id="path4358"
           style="fill:none;stroke:#0073b2;stroke-width:12.5;stroke-linecap:butt;stroke-linejoin:miter;stroke-miterlimit:3.79999995;stroke-dasharray:none;stroke-opacity:1"
           d="m 3190,780.5 199.5,0 M 385,224 l 0,1843 0.5,0 0,73.5 4.5,0 0,74 19,0 0,73.5 8.5,0 0,74 32,0 0,73.5 77.5,0" />
        <g
           transform="scale(10,10)"
           id="g4360">
          <text
             id="text4362"
             style="font-variant:normal;font-weight:normal;font-size:7px;font-family:Helvetica;-inkscape-font-specification:Helvetica;writing-mode:lr-tb;fill:#000000;fill-opacity:1;fill-rule:nonzero;stroke:none"
             transform="matrix(1,0,0,-1,280.579,68.7148)">
            <tspan
               id="tspan4364"
               sodipodi:role="line"
               y="0"
               x="0 4.6690001 9.3380003 15.946 20.615 25.669001 31.5">PSWARM*</tspan>
          </text>
        </g>
        <path
           inkscape:connector-curvature="0"
           id="path4366"
           style="fill:none;stroke:#e61f0f;stroke-width:12.5;stroke-linecap:butt;stroke-linejoin:miter;stroke-miterlimit:3.79999995;stroke-dasharray:none;stroke-opacity:1"
           d="m 3190,710.5 199.5,0 M 385,224 l 0,221 0.5,0 0,221.5 0.5,0 0,73.5 0.5,0 0,147.5 2,0 0,147.5 1.5,0 0,73.5 4,0 0,74 16.5,0 0,73.5 8.5,0 0,74 30,0 0,73.5 46.5,0 0,73.5 28.5,0 0,74 215,0 0,73.5 311.5,0 0,74 93,0 0,73.5 39,0 0,74 9.5,0 0,73.5 531.5,0 0,73.5 283,0 0,74 1260.5,0 0,73.5 206.5,0" />
        <g
           transform="scale(10,10)"
           id="g4368">
          <text
             id="text4370"
             style="font-variant:normal;font-weight:normal;font-size:7px;font-family:Helvetica;-inkscape-font-specification:Helvetica;writing-mode:lr-tb;fill:#000000;fill-opacity:1;fill-rule:nonzero;stroke:none"
             transform="matrix(1,0,0,-1,301.186,61.7148)">
            <tspan
               id="tspan4372"
               sodipodi:role="line"
               y="0"
               x="0 5.0539999 9.7229996">DE2</tspan>
          </text>
        </g>
        <path
           inkscape:connector-curvature="0"
           id="path4374"
           style="fill:none;stroke:#000000;stroke-width:12.5;stroke-linecap:butt;stroke-linejoin:miter;stroke-miterlimit:3.79999995;stroke-dasharray:none;stroke-opacity:1"
           d="m 3190,640.5 199.5,0 M 394.5,224 l 132.5,0 0,73.5 9,0 0,74 53.5,0 0,73.5 18,0 0,74 38,0 0,73.5 37,0 0,74 1,0 0,73.5 41,0 0,73.5 6.5,0 0,74 19,0 0,73.5 1.5,0 0,74 47.5,0 0,73.5 32.5,0 0,74 291.5,0 0,73.5 10,0 0,147.5 50,0 0,73.5 201.5,0 0,74 85,0 0,73.5 147,0 0,74 496,0 0,73.5 108.5,0 0,74 205.5,0 0,73.5 303.5,0 0,73.5 198,0 0,74 445.5,0 0,73.5 100,0" />
        <g
           transform="scale(10,10)"
           id="g4376">
          <text
             id="text4378"
             style="font-variant:normal;font-weight:normal;font-size:7px;font-family:Helvetica;-inkscape-font-specification:Helvetica;writing-mode:lr-tb;fill:#000000;fill-opacity:1;fill-rule:nonzero;stroke:none"
             transform="matrix(1,0,0,-1,287.76,54.7148)">
            <tspan
               id="tspan4380"
               sodipodi:role="line"
               y="0"
               x="0 5.0539999 9.7229996 13.615 17.702999 22.372">DE2+PS</tspan>
          </text>
        </g>
        <path
           inkscape:connector-curvature="0"
           id="path4382"
           style="fill:none;stroke:#9400d4;stroke-width:12.5;stroke-linecap:butt;stroke-linejoin:miter;stroke-miterlimit:3.79999995;stroke-dasharray:25, 37.5;stroke-dashoffset:0;stroke-opacity:1"
           d="m 3190,570.5 199.5,0 M 385,224 l 2,0 0,73.5 2,0 0,74 4.5,0 0,73.5 134,0 0,74 49,0 0,73.5 9,0 0,74 4,0 0,73.5 7,0 0,73.5 86,0 0,74 36,0 0,73.5 7,0 0,74 0.5,0 0,73.5 24,0 0,74 53,0 0,73.5 27,0 0,74 63.5,0 0,73.5 7.5,0 0,73.5 28,0 0,74 479,0 0,73.5 103,0 0,74 492,0 0,73.5 109.5,0 0,74 265,0 0,73.5 443,0 0,73.5 653,0" />
        <g
           transform="scale(10,10)"
           id="g4384">
          <text
             id="text4386"
             style="font-variant:normal;font-weight:normal;font-size:7px;font-family:Helvetica;-inkscape-font-specification:Helvetica;writing-mode:lr-tb;fill:#000000;fill-opacity:1;fill-rule:nonzero;stroke:none"
             transform="matrix(1,0,0,-1,285.038,47.7148)">
            <tspan
               id="tspan4388"
               sodipodi:role="line"
               y="0"
               x="0 5.0539999 9.7229996 13.615 17.702999 22.372 27.041">DE2+PS*</tspan>
          </text>
        </g>
        <path
           inkscape:connector-curvature="0"
           id="path4390"
           style="fill:none;stroke:#009e73;stroke-width:12.5;stroke-linecap:butt;stroke-linejoin:miter;stroke-miterlimit:3.79999995;stroke-dasharray:25, 37.5;stroke-dashoffset:0;stroke-opacity:1"
           d="m 3190,500.5 199.5,0 M 385,224 l 0,811 0.5,0 0,73.5 3.5,0 0,74 1.5,0 0,73.5 46.5,0 0,74 90.5,0 0,73.5 13.5,0 0,73.5 48.5,0 0,74 74,0 0,73.5 149,0 0,74 44,0 0,73.5 68.5,0 0,74 198.5,0 0,73.5 51,0 0,147.5 202,0 0,73.5 1001,0 0,74 362.5,0 0,73.5 193.5,0 0,74 73.5,0 0,73.5 278.5,0" />
        <g
           transform="scale(10,10)"
           id="g4392">
          <text
             id="text4394"
             style="font-variant:normal;font-weight:normal;font-size:7px;font-family:Helvetica;-inkscape-font-specification:Helvetica;writing-mode:lr-tb;fill:#000000;fill-opacity:1;fill-rule:nonzero;stroke:none"
             transform="matrix(1,0,0,-1,301.186,40.7148)">
            <tspan
               id="tspan4396"
               sodipodi:role="line"
               y="0"
               x="0 5.0539999 9.7229996">DE3</tspan>
          </text>
        </g>
        <path
           inkscape:connector-curvature="0"
           id="path4398"
           style="fill:none;stroke:#57b5e8;stroke-width:12.5;stroke-linecap:butt;stroke-linejoin:miter;stroke-miterlimit:3.79999995;stroke-dasharray:25, 37.5;stroke-dashoffset:0;stroke-opacity:1"
           d="m 3190,430.5 199.5,0 M 388,224 l 86.5,0 0,73.5 21,0 0,74 31.5,0 0,73.5 58.5,0 0,147.5 4,0 0,74 13,0 0,73.5 18.5,0 0,73.5 125.5,0 0,74 24,0 0,73.5 26,0 0,74 164,0 0,73.5 19.5,0 0,74 169.5,0 0,73.5 147.5,0 0,74 7,0 0,73.5 424,0 0,73.5 170.5,0 0,74 214,0 0,73.5 319,0 0,74 885.5,0 0,73.5 56.5,0 0,74 100,0" />
        <g
           transform="scale(10,10)"
           id="g4400">
          <text
             id="text4402"
             style="font-variant:normal;font-weight:normal;font-size:7px;font-family:Helvetica;-inkscape-font-specification:Helvetica;writing-mode:lr-tb;fill:#000000;fill-opacity:1;fill-rule:nonzero;stroke:none"
             transform="matrix(1,0,0,-1,287.76,33.7148)">
            <tspan
               id="tspan4404"
               sodipodi:role="line"
               y="0"
               x="0 5.0539999 9.7229996 13.615 17.702999 22.372">DE3+PS</tspan>
          </text>
        </g>
        <path
           inkscape:connector-curvature="0"
           id="path4406"
           style="fill:none;stroke:#e69e00;stroke-width:12.5;stroke-linecap:butt;stroke-linejoin:miter;stroke-miterlimit:3.79999995;stroke-dasharray:25, 37.5;stroke-dashoffset:0;stroke-opacity:1"
           d="m 3190,360.5 199.5,0 M 385,224 l 0,589.5 4.5,0 0,74 48.5,0 0,73.5 57.5,0 0,74 31.5,0 0,73.5 38,0 0,74 17,0 0,73.5 3.5,0 0,147.5 4,0 0,73.5 76,0 0,74 105,0 0,73.5 12.5,0 0,74 197,0 0,73.5 311,0 0,74 90.5,0 0,73.5 517,0 0,73.5 214,0 0,74 239,0 0,73.5 690.5,0 0,74 431.5,0" />
        <g
           transform="scale(10,10)"
           id="g4408">
          <text
             id="text4410"
             style="font-variant:normal;font-weight:normal;font-size:7px;font-family:Helvetica;-inkscape-font-specification:Helvetica;writing-mode:lr-tb;fill:#000000;fill-opacity:1;fill-rule:nonzero;stroke:none"
             transform="matrix(1,0,0,-1,285.038,26.7148)">
            <tspan
               id="tspan4412"
               sodipodi:role="line"
               y="0"
               x="0 5.0539999 9.7229996 13.615 17.702999 22.372 27.041">DE3+PS*</tspan>
          </text>
        </g>
        <path
           inkscape:connector-curvature="0"
           id="path4414"
           style="fill:none;stroke:#f0e342;stroke-width:12.5;stroke-linecap:butt;stroke-linejoin:miter;stroke-miterlimit:3.79999995;stroke-dasharray:25, 37.5;stroke-dashoffset:0;stroke-opacity:1"
           d="m 3190,290.5 199.5,0 M 385,224 l 0,1032 0.5,0 0,74 139.5,0 0,73.5 56,0 0,73.5 23,0 0,74 8,0 0,73.5 34.5,0 0,74 136.5,0 0,73.5 508,0 0,74 90.5,0 0,73.5 693,0 0,73.5 225.5,0 0,74 299,0 0,73.5 874.5,0" />
        <path
           inkscape:connector-curvature="0"
           id="path4416"
           style="fill:none;stroke:#000000;stroke-width:5;stroke-linecap:butt;stroke-linejoin:miter;stroke-miterlimit:3.79999995;stroke-dasharray:none;stroke-opacity:1"
           d="m 385,224 3088.5,0 0,2211.5 -3088.5,0 0,-2211.5 z" />
      </g>
    </g>
    <rect
       style="fill:none;stroke:none;stroke-width:2.38909864;stroke-miterlimit:4;stroke-dasharray:none;stroke-opacity:1"
       id="rect4546"
       width="145.61092"
       height="293.46805"
       x="-173.1626"
       y="183.1996" />
    <path
       style="fill:none;fill-rule:evenodd;stroke:#000000;stroke-width:0.70009118;stroke-linecap:butt;stroke-linejoin:miter;stroke-miterlimit:4;stroke-dasharray:none;stroke-opacity:1"
       d="m -27.626008,187.50094 0,275.79546 -0.189368,-0.16791"
       id="path4259"
       inkscape:connector-curvature="0" />
  </g>
</svg>
